PathFileType	4	(X/Y/Z)	/home/abdul/Documents/myosuite/MHH/MHH/IK/original/output/S5_12_1.trc
DataRate	CameraRate	NumFrames	NumMarkers	Units	OrigDataRate	OrigDataStartFrame	OrigNumFrames
200.0	200.0	28	3	mm	200.0	1109	1267
Frame#	Time	V_Shoulder			V_Elbow			V_Wrist		
		X1	Y1	Z1	X2	Y2	Z2	X3	Y3	Z3

1109	5.54	-6.685027816743898	732.0938113032079	244.71014263103635	-136.09478734929513	560.5024106910986	24.89875025872896	-117.18308421139565	314.3624625053661	26.225330075630936
1110	5.545	-6.773535518397757	732.0818263916594	244.40820874584605	-136.2065401421459	560.5149501092582	24.766253500497477	-117.27460655205228	314.3883727200364	26.269818598173313
1111	5.55	-6.862670795768771	732.071301903894	244.1055591440404	-136.31982014010993	560.5274007949404	24.63409928464489	-117.3692763708559	314.41395077007013	26.314928722634605
1112	5.555	-6.9524220689253555	732.062227689334	243.80248591866257	-136.4344172528578	560.5397833436016	24.502292370866996	-117.46676428195023	314.4392501179717	26.3604999072182
1113	5.56	-7.042774683922535	732.0545922581117	243.49928452565487	-136.5501215939292	560.5521179293548	24.3708436289881	-117.56674415232277	314.4643222191387	26.40638331513791
1114	5.565	-7.133710982777365	732.0483827476922	243.1962530020969	-136.6667241183804	560.5644241337883	24.239769971267265	-117.66889379251086	314.4892162872785	26.452441435820845
1115	5.57	-7.225210381417341	732.0435848907991	242.89369117458924	-136.7840172437049	560.5767207843181	24.109094251564763	-117.77289561438948	314.5139790791287	26.498547685649356
1116	5.575	-7.317249455027394	732.0401829850498	242.59189986084345	-136.90179545224612	560.5890258027197	23.9788451327669	-117.87843725640532	314.5386546988676	26.544585991264448
1117	5.58	-7.4098020302158965	732.0381598647095	242.29118006755962	-137.01985587340224	560.601356064426	23.849056923966263	-117.98521217662439	314.5632844225246	26.590450358395472
1118	5.585	-7.502839283418672	732.0374968749561	241.9918321876747	-137.13799884400902	560.6137272691159	23.719769388983693	-118.09292021395082	314.5879065426185	26.636044429108452
1119	5.59	-7.596329844962153	732.0381738490424	241.69415520005313	-137.25602844537886	560.6261538230509	23.591027527897765	-118.2012681178592	314.6125562331714	26.68128103027879
1120	5.595	-7.690239908212303	732.040169088726	241.3984458746644	-137.37375301557125	560.6386487335496	23.462881333318524	-118.30997004696086	314.6372654351601	26.726081715994983
1121	5.6	-7.784533343244543	732.0434593483159	241.10499798625128	-137.4909856355745	560.6512235159196	23.33538552320409	-118.4187480366976	314.66206276238216	26.770376306488913
1122	5.605	-7.879171814481361	732.0480198226778	240.8141015394367	-137.6075445881861	560.6638881130918	23.20859925207261	-118.5273324364269	314.68697342762766	26.814102426067357
1123	5.61	-7.9741149017583455	732.0538241395079	240.52604200814838	-137.7232537884941	560.6766508281281	23.08258580250758	-118.6354623161314	314.71201918896327	26.857205042388667
1124	5.615	-8.069320224295728	732.0608443561688	240.24109959215718	-137.83794318498008	560.6895182696971	22.957412258892536	-118.74288584295363	314.7372183158474	26.89963600929034
1125	5.62	-8.164743567070973	732.0690509613563	239.9595484934317	-137.9514491303872	560.7024953105392	22.833149165341382	-118.84936062772721	314.7625855747135	26.941353615227847
1126	5.625	-8.260339009108025	732.0784128818386	239.6816562149037	-138.06361472162388	560.7155850588601	22.709870169813563	-118.95465404164665	314.7881322335735	26.982322139234252
1127	5.63	-8.356059053220553	732.0888974944837	239.4076828841221	-138.17429010810375	560.7287888425253	22.587651656418828	-119.05854350319433	314.81386608511554	27.022511416154906
1128	5.635	-8.451854756769235	732.1004706437578	239.1378806041446	-138.28333276805472	560.742106205845	22.466572367924805	-119.160816735423	314.8397914876917	27.061896412752862
1129	5.64	-8.54767586301696	732.1130966648552	238.87249283387973	-138.39060775246503	560.7555349186745	22.346713020481555	-119.26127199367681	314.8659094235194	27.100456816120225
1130	5.645	-8.643470932690082	732.1267384125813	238.61175379994324	-138.4959878964692	560.7690709974803	22.22815591257129	-119.35971826382712	314.89221757334934	27.13817663566922
1131	5.65	-8.739187475378737	732.1413572960806	238.3558879419418	-138.5993539981132	560.782708737959	22.11098453017786	-119.455975431096	314.9187104067894	27.17504381981562
1132	5.655	-8.83477208043407	732.1569133194735	238.10510939293465	-138.70059496457355	560.7964407587301	21.995283150149778	-119.54987441954849	314.94537928741244	27.21104988830774
1133	5.66	-8.930170547045151	732.1733651284204	237.8596214966567	-138.79960792603913	560.8102580555687	21.88113644370234	-119.64125730234682	314.972212591724	27.24618958099716
1134	5.665	-9.025328013202932	732.190670062615	237.6196163629168	-138.89629831759666	560.8241500655852	21.76862908196832	-119.72997738288302	314.99919584101644	27.280460523694273
1135	5.67	-9.120189083282652	732.2087842141538	237.38527446240775	-138.99057992959072	560.8381047407115	21.65784534546352	-119.81589924693603	315.02631184509255	27.31386291160341
1136	5.675	-9.214697953999702	732.2276624917137	237.15676426198638	-139.08237492705405	560.8521086298114	21.54886873928205	-119.89889878603731	315.05354085680733	27.34639921068954
